<?xml version="1.0" encoding="UTF-8"?>
<!DOCTYPE svg PUBLIC "-//W3C//DTD SVG 1.1//EN" "http://www.w3.org/Graphics/SVG/1.1/DTD/svg11.dtd">
<svg xmlns="http://www.w3.org/2000/svg" version="1.1" width="512px" height="512px" style="shape-rendering:geometricPrecision; text-rendering:geometricPrecision; image-rendering:optimizeQuality; fill-rule:evenodd; clip-rule:evenodd" xmlns:xlink="http://www.w3.org/1999/xlink">
<g><path style="opacity:0.958" fill="#030000" d="M 283.5,33.5 C 308.622,32.4562 321.122,44.4562 321,69.5C 320.181,74.1415 318.514,78.4748 316,82.5C 312.584,86.0835 309.751,90.0835 307.5,94.5C 308.025,95.1924 308.692,95.6924 309.5,96C 320.04,96.447 330.373,95.1136 340.5,92C 374.208,81.3196 408.208,71.6529 442.5,63C 446.161,62.171 449.495,60.671 452.5,58.5C 454.753,59.2531 456.587,60.5864 458,62.5C 458.51,82.5433 462.51,101.877 470,120.5C 477.755,165.367 484.755,210.367 491,255.5C 492.957,267.444 493.957,279.444 494,291.5C 491.207,293.885 488.041,295.719 484.5,297C 449.1,305.577 414.1,315.577 379.5,327C 357.181,333.58 334.514,338.58 311.5,342C 299.369,343.139 287.369,342.472 275.5,340C 267.651,336.809 263.317,330.976 262.5,322.5C 263.237,316.744 264.404,311.078 266,305.5C 268.541,297.079 265.708,291.579 257.5,289C 229.079,288.253 202.746,295.253 178.5,310C 176.291,311.873 174.458,314.04 173,316.5C 172.008,330.991 171.175,345.491 170.5,360C 171.558,380.159 171.724,400.325 171,420.5C 169.811,436.59 165.811,451.924 159,466.5C 150.344,478.517 141.01,479.183 131,468.5C 127.067,462.034 124.734,455.034 124,447.5C 123.633,440.989 123.133,434.489 122.5,428C 125.051,399.216 125.884,370.383 125,341.5C 121.824,311.898 119.491,282.231 118,252.5C 117.174,201.638 117.34,150.805 118.5,100C 118.07,98.5659 117.236,97.3992 116,96.5C 115.166,84.3273 117.166,72.6606 122,61.5C 127.307,54.8731 133.807,53.7065 141.5,58C 147.028,62.8995 151.194,68.7328 154,75.5C 165.442,67.5664 177.942,61.7331 191.5,58C 213.922,53.0811 235.922,46.7478 257.5,39C 266.237,36.8209 274.903,34.9876 283.5,33.5 Z"/></g>
<g><path style="opacity:1" fill="#ee4722" d="M 279.5,45.5 C 286.674,45.0117 293.674,45.845 300.5,48C 307.927,53.6991 310.76,61.1991 309,70.5C 306.059,75.772 302.726,80.772 299,85.5C 293.143,95.254 295.309,102.421 305.5,107C 317.343,108.096 329.009,107.096 340.5,104C 375.814,92.7557 411.481,82.9224 447.5,74.5C 447.357,81.2842 448.19,87.9509 450,94.5C 455.92,112.179 460.586,130.179 464,148.5C 470.296,192.313 476.462,236.146 482.5,280C 482.167,281.5 481.833,283 481.5,284.5C 435.82,297.559 390.154,310.726 344.5,324C 334.544,326.215 324.544,328.215 314.5,330C 302.724,332.264 291.058,331.931 279.5,329C 277.714,328.215 276.214,327.049 275,325.5C 274.636,315.957 276.636,306.957 281,298.5C 281.448,280.068 278.782,262.068 273,244.5C 268.349,220.99 267.349,197.323 270,173.5C 272.137,156.678 275.137,140.011 279,123.5C 280.602,115.766 277.769,112.933 270.5,115C 253.891,168.32 253.391,221.82 269,275.5C 270.678,281.683 269.178,282.849 264.5,279C 253.577,276.161 242.577,275.828 231.5,278C 218.277,280.852 205.277,284.518 192.5,289C 185.474,291.595 178.974,295.095 173,299.5C 172.562,266.702 170.229,234.035 166,201.5C 163.599,170.54 161.932,139.54 161,108.5C 160.297,101.909 159.13,95.4093 157.5,89C 160.355,85.5554 163.688,82.5554 167.5,80C 173.046,77.0602 178.713,74.3935 184.5,72C 216.546,64.0331 248.213,55.1998 279.5,45.5 Z"/></g>
<g><path style="opacity:1" fill="#c26327" d="M 132.5,66.5 C 134.371,66.8588 135.871,67.8588 137,69.5C 143.753,79.0862 147.753,89.7529 149,101.5C 150.848,132.153 152.515,162.82 154,193.5C 157.192,219.757 159.526,246.09 161,272.5C 160.249,321.825 159.582,371.158 159,420.5C 158.299,434.971 154.632,448.638 148,461.5C 144.155,465.675 141.155,465.008 139,459.5C 135.352,448.296 133.852,436.796 134.5,425C 135.481,402.831 136.481,380.664 137.5,358.5C 135.579,326.131 133.079,293.797 130,261.5C 129.115,231.673 128.615,201.84 128.5,172C 129.143,140.791 129.143,109.624 128.5,78.5C 129.641,74.409 130.975,70.409 132.5,66.5 Z"/></g>
</svg>
